<svg xmlns="http://www.w3.org/2000/svg" xmlns:xlink="http://www.w3.org/1999/xlink" width="19" height="19" viewBox="0 0 19 19">
  <defs>
    <clipPath id="clip-path">
      <rect id="Rectangle_13" data-name="Rectangle 13" width="19" height="19" transform="translate(22 195)" fill="#727272"/>
    </clipPath>
  </defs>
  <g id="Mask_Group_1" data-name="Mask Group 1" transform="translate(-22 -195)" clip-path="url(#clip-path)">
    <g id="pizza" transform="translate(20.663 193.643)">
      <path id="Path_1" data-name="Path 1" d="M18.738,2.877h0a22,22,0,0,0-7.9-1.52,21.781,21.781,0,0,0-7.912,1.5c-.861.349-1.009.964-.861,1.423l.173.432a.679.679,0,0,0,.9.369c.458-.2,1.015-.447,1.145-.5a17.349,17.349,0,0,1,6.57-1.184,17.1,17.1,0,0,1,6.563,1.2h0c.187.076.631.272,1.11.486a.679.679,0,0,0,.905-.364l.158-.387.014-.038C19.754,3.855,19.614,3.225,18.738,2.877Z" fill="#727272"/>
      <path id="Path_2" data-name="Path 2" d="M17.354,5.974a17.957,17.957,0,0,0-13.035,0l-.182.08a.679.679,0,0,0-.339.9c.17.369.4.873.657,1.437,1.4,3.057,3.994,8.74,5.184,11.2a1.346,1.346,0,0,0,1.219.763h0a1.346,1.346,0,0,0,1.22-.766l0-.006L17.9,6.966a.676.676,0,0,0-.352-.91l-.191-.079ZM8.231,9.5A1.357,1.357,0,1,1,9.5,8.231,1.357,1.357,0,0,1,8.231,9.5Zm2.714,5.429a1.357,1.357,0,1,1,1.266-1.266,1.357,1.357,0,0,1-1.266,1.266Zm2.714-4.75A1.357,1.357,0,1,1,14.926,8.91,1.357,1.357,0,0,1,13.66,10.176Z" fill="#727272"/>
    </g>
  </g>
</svg>
