<svg xmlns="http://www.w3.org/2000/svg" width="15.71" height="17.656" viewBox="0 0 15.71 17.656">
  <path id="Path_6" data-name="Path 6" d="M-6.961,2.555A2.954,2.954,0,0,0-5.7,3.348a2.383,2.383,0,0,0,1.344.012,2.776,2.776,0,0,0,1.242-.773,4.955,4.955,0,0,0,.664-.828q.328-.5.637-1.062T-1.227-.4Q-.945-.93-.7-1.312L1.055.445a1.259,1.259,0,0,0,.906.43A1.229,1.229,0,0,0,2.852.461L3.477-.18a1.22,1.22,0,0,0,.414-.887,1.3,1.3,0,0,0-.437-.895l-5.891-5.9A1.309,1.309,0,0,0-3.344-8.3a1.207,1.207,0,0,0-.891.414l-.633.625a1.231,1.231,0,0,0-.41.891,1.293,1.293,0,0,0,.434.906L-3.094-3.7q-.383.242-.91.523t-1.09.59q-.562.309-1.066.637a4.891,4.891,0,0,0-.832.664,2.836,2.836,0,0,0-.77,1.242A2.338,2.338,0,0,0-7.75,1.3,3.02,3.02,0,0,0-6.961,2.555ZM4.375-2.289,7.242-5.148a1.853,1.853,0,0,0,.613-1.344A2,2,0,0,0,7.2-7.859l-.4-.414a4.167,4.167,0,0,1-.781.75,7.178,7.178,0,0,1-1.031.656,4.558,4.558,0,0,1-.973.391q-.434.109-.582-.055a.165.165,0,0,1-.055-.133.243.243,0,0,1,.07-.164,7.7,7.7,0,0,0,.781-.906,4.462,4.462,0,0,0,.551-1.012A4.744,4.744,0,0,0,5.063-10l-3.8-3.8a1.289,1.289,0,0,0-.848-.4,1.3,1.3,0,0,0-.9.289,1.747,1.747,0,0,0-.59,1q-.234.938-.453,1.645t-.434,1.25q-.215.543-.426.98ZM-4.969,1.539A.87.87,0,0,1-5.6,1.277.851.851,0,0,1-5.867.648.86.86,0,0,1-5.6.012.87.87,0,0,1-4.969-.25a.867.867,0,0,1,.637.262A.867.867,0,0,1-4.07.648a.858.858,0,0,1-.262.629A.867.867,0,0,1-4.969,1.539Z" transform="translate(7.855 14.206)" fill="#727272"/>
</svg>
