<svg xmlns="http://www.w3.org/2000/svg" width="14.688" height="14.828" viewBox="0 0 14.688 14.828"><defs><style>.a{fill:#333;}</style></defs><path class="a" d="M7.711-1.336a5.866,5.866,0,0,0,3.555-1.2l3.977,3.984a.733.733,0,0,0,.516.211.714.714,0,0,0,.727-.742.719.719,0,0,0-.2-.516L12.32-3.555a5.849,5.849,0,0,0,1.3-3.7,5.93,5.93,0,0,0-5.914-5.914A5.93,5.93,0,0,0,1.8-7.25,5.925,5.925,0,0,0,7.711-1.336Zm0-.992A4.941,4.941,0,0,1,2.789-7.25a4.946,4.946,0,0,1,4.922-4.922A4.946,4.946,0,0,1,12.633-7.25,4.941,4.941,0,0,1,7.711-2.328Z" transform="translate(-1.797 13.164)"/></svg>