<svg xmlns="http://www.w3.org/2000/svg" width="17.945" height="15.242" viewBox="0 0 17.945 15.242">
  <path id="Path_4" data-name="Path 4" d="M0,2.258a7.33,7.33,0,0,0,2.938-.594A7.689,7.689,0,0,0,5.359.02,7.781,7.781,0,0,0,7-2.4a7.3,7.3,0,0,0,.594-2.934A7.311,7.311,0,0,0,7-8.266a7.689,7.689,0,0,0-1.645-2.422A7.768,7.768,0,0,0,2.93-12.328a7.33,7.33,0,0,0-2.937-.594,7.294,7.294,0,0,0-2.734.516,7.7,7.7,0,0,0-2.312,1.438A7.751,7.751,0,0,0-6.727-8.824a7.4,7.4,0,0,0-.812,2.637,4.562,4.562,0,0,1,.969-.1A4.627,4.627,0,0,1-4.465-5.8,4.97,4.97,0,0,1-2.816-4.48,4.582,4.582,0,0,1-1.9-2.617a8.873,8.873,0,0,1,.906-.16,7.939,7.939,0,0,1,.984-.059A7.9,7.9,0,0,1,1.98-2.6a6.2,6.2,0,0,1,1.566.621,3.972,3.972,0,0,1,1.031.816A5.853,5.853,0,0,1,3.3-.09,6.412,6.412,0,0,1,1.738.621,6,6,0,0,1-.008.875,5.885,5.885,0,0,1-1.117.766a6.087,6.087,0,0,1-1.07-.3,2.8,2.8,0,0,1-.289.57,5.665,5.665,0,0,1-.461.625,7.317,7.317,0,0,0,1.426.449A7.461,7.461,0,0,0,0,2.258ZM-.008-4.1a2.386,2.386,0,0,1-1.285-.375,2.657,2.657,0,0,1-.914-1A2.951,2.951,0,0,1-2.547-6.9,2.723,2.723,0,0,1-2.211-8.27a2.737,2.737,0,0,1,.918-.992A2.317,2.317,0,0,1-.008-9.633a2.336,2.336,0,0,1,1.289.371A2.662,2.662,0,0,1,2.2-8.27,2.835,2.835,0,0,1,2.531-6.9,3,3,0,0,1,2.2-5.469a2.65,2.65,0,0,1-.91,1A2.283,2.283,0,0,1-.008-4.1ZM-6.562,2.32a3.559,3.559,0,0,0,1.449-.3A3.93,3.93,0,0,0-3.906,1.2a3.874,3.874,0,0,0,.82-1.207,3.618,3.618,0,0,0,.3-1.457,3.679,3.679,0,0,0-.293-1.465,3.851,3.851,0,0,0-.812-1.207A3.814,3.814,0,0,0-5.1-4.961a3.646,3.646,0,0,0-1.461-.3,3.6,3.6,0,0,0-1.465.3,3.964,3.964,0,0,0-1.207.82,3.827,3.827,0,0,0-.82,1.2,3.637,3.637,0,0,0-.3,1.465A3.637,3.637,0,0,0-10.055,0,3.874,3.874,0,0,0-9.234,1.2a3.873,3.873,0,0,0,1.207.82A3.637,3.637,0,0,0-6.562,2.32Zm0-1.328A.534.534,0,0,1-6.926.859.435.435,0,0,1-7.078.516v-1.5H-8.469a.455.455,0,0,1-.344-.148.476.476,0,0,1-.141-.336.468.468,0,0,1,.141-.344.468.468,0,0,1,.344-.141h1.391v-1.5A.432.432,0,0,1-6.926-3.8a.544.544,0,0,1,.363-.129.533.533,0,0,1,.355.129.432.432,0,0,1,.152.348v1.5h1.391a.468.468,0,0,1,.344.141.468.468,0,0,1,.141.344.476.476,0,0,1-.141.336.455.455,0,0,1-.344.148H-6.055v1.5a.435.435,0,0,1-.152.344A.524.524,0,0,1-6.562.992Z" transform="translate(10.352 12.922)" fill="#727272"/>
</svg>
