<svg id="Layer_1" data-name="Layer 1" xmlns="http://www.w3.org/2000/svg" viewBox="0 0 841.89 328.48"><defs><style>.cls-1{fill:#1d1d1b;}.cls-2{fill:none;}</style></defs><path class="cls-1" d="M176.85,129c0-7.21-2.53-14.08-8.3-18.44a.58.58,0,0,0-.45.92c2.81,3,4.23,11,4.23,15.3,0,9-8.15,16.23-17.6,16.43H154c-9.46-.18-17.62-7.38-17.62-16.43,0-4.3,1.43-12.35,4.23-15.3a.57.57,0,0,0-.45-.92c-5.77,4.36-8.29,11.23-8.29,18.44a22.5,22.5,0,0,0,22.31,22.48v0h.39v0A22.5,22.5,0,0,0,176.85,129m17,1.49a36.49,36.49,0,0,0-13.37-28.06c-.31,0-.56.25-.43.91,5.33,5.46,8.57,15.77,8.57,23.63,0,17-15.23,30.87-34,31h-.39c-18.81-.1-34-13.92-34-31,0-7.86,3.23-18.17,8.57-23.63.13-.66-.13-.91-.43-.91a36.5,36.5,0,0,0-13.38,28.06,38.88,38.88,0,0,0,39.28,39.08v0h.39v0a38.88,38.88,0,0,0,39.27-39.08m15.86,5.61A53.71,53.71,0,0,0,191.4,95.73c-.31,0-.56.24-.44.9,7,8.16,11.3,21.84,11.3,33.36,0,25.8-21.35,46.72-47.72,46.83h-.39c-26.37-.11-47.73-21-47.73-46.83,0-11.52,4.25-25.2,11.3-33.36.12-.66-.13-.9-.44-.9A53.71,53.71,0,0,0,99,136.06c0,30,24.48,54.29,54.79,54.58h.83c30.42-.14,55-24.52,55-54.58"/><path class="cls-1" d="M329.45,139.58c0-4.44-5.15-7.25-13.85-.88a53.33,53.33,0,0,0-4.85,4.24,41.14,41.14,0,0,1,6-2.31,25.16,25.16,0,0,1,3.57,13.64c0,13.06-7.37,22.35-20.68,22.35S279,167.33,279,154.27,286.35,132,299.66,132c5.79,0,10.46,1.76,13.88,4.82,12-10.4,28-5.51,28,5.45v20.3c0,4.1,1.08,8.87,5.77,8.87,4.86,0,7.62-4.18,7.62-14.4V141.46c0-4.61-.84-5.7-3.35-5.7h-1.84v-2.43h17.67S367,145.06,367,151.5v15.66c0,4.6.84,5.69,3.35,5.69h2.85v2.43H361.52a48.72,48.72,0,0,0-6.12.51l-.16-6.62c-3.35,4.77-7.37,7.45-13.57,7.45-8.2,0-12.22-4.94-12.22-11.89Zm-37.91,14.69c0,14.48,2.18,19.42,8.12,19.42s8.12-4.94,8.12-19.42c0-16.58-3.69-19.34-8.12-19.34s-8.12,2.76-8.12,19.34"/><path class="cls-1" d="M233.63,172.72s11.19,4,19.26,4c11,0,20.68-7,20.68-18.84,0-24.19-31.9-16.66-31.9-31.14,0-6.53,6-9.38,11.72-9.38,7.71,0,13.57,5.11,14.07,12.65h3.18V118.38s-10.41-3.93-17.67-3.93c-10.88,0-19.84,6.2-19.84,18,0,22.11,31.4,15.07,31.4,30.65,0,6.61-4.61,10.71-11.64,10.71-8.62,0-16.07-6-16.07-14.31h-3.19Z"/><path class="cls-1" d="M699.78,175.41H717V173h-1.84c-2.51,0-3.35-1.08-3.35-5.69V151.71c0-5.19,0-14.4,8-14.4,5.36,0,5.36,4.77,5.36,8.87v29.23h17.24V173h-1.84c-2.51,0-3.35-1.08-3.35-5.69V144c0-6.95-4-11.89-12.22-11.89-6.2,0-10.22,2.68-13.56,7.45l-.17-6.11H693.59v2.43h2.84c2.52,0,3.35,1.08,3.35,5.69Z"/><path class="cls-1" d="M530.12,132.71c4.63,0,8,2.82,8,6.31s-3.42,6.31-7.65,6.31c-4,0-7.36-2.59-7.63-5.87-1.86,1.52-4.25,7.86-4.25,7.86v20c0,4.61.84,5.69,3.35,5.69h3.85v2.44H506.56v-10c-6.22,6.08-15.06,11.35-27,11.35-13.31,0-21.9-9.29-21.9-22.35s7.37-22.27,20.68-22.27c14,0,18.92,9.46,18.92,22.44H476.87v-2.43h7.29c0-9,0-17.08-6.2-17.08-6.95,0-7.28,8.87-7.28,17.08v4.52c0,8.37,2,15.67,11.52,15.67,14.36,0,26.76-12,33.17-23.83.65-1.19-4.75,5.13-8.81,7.46V141.58c0-4.61-.85-5.69-3.35-5.69h-2.85v-2.43h17.75l.33,8.12c1.85-4.27,5.43-8.87,11.68-8.87"/><path class="cls-1" d="M675.45,175.91a50.32,50.32,0,0,1,6.11-.5H693.2V173h-2.85c-2.51,0-3.35-1.08-3.35-5.69V151.63c0-6.45.42-18.17.42-18.17H669.76v2.43h1.84c2.51,0,3.35,1.08,3.35,5.69v15.57c0,10.22-2.77,14.4-7.63,14.4-4.68,0-5.77-4.77-5.77-8.87V151.63c0-6.45.42-18.17.42-18.17H644.3v2.43h1.84c2.51,0,3.35,1.08,3.35,5.69v23.27c0,7,4,11.89,12.23,11.89,6.19,0,10.21-2.67,13.56-7.45Z"/><path class="cls-1" d="M601.76,172.72s11.19,4,19.26,4c11,0,20.67-7,20.67-18.84,0-24.19-31.9-16.66-31.9-31.14,0-6.53,6-9.38,11.73-9.38,7.7,0,13.56,5.11,14.06,12.65h3.19V118.38s-10.41-3.93-17.67-3.93c-10.89,0-19.85,6.2-19.85,18,0,22.11,31.4,15.07,31.4,30.65,0,6.61-4.6,10.71-11.63,10.71-8.63,0-16.08-6-16.08-14.31h-3.18Z"/><path class="cls-1" d="M405.44,133.46v2.43H394v29.2c0,5,0,8.7,3.85,8.7.38,0,2.48,0,2.78-.12v2.07a27.42,27.42,0,0,1-6.79,1c-8.63,0-11.89-5.35-11.89-11V135.89H376v-2.43c8.3-.5,13.57-8.54,15.41-16.08H394v16.08Z"/><path class="cls-1" d="M411,175.41h17.24V173h-1.84c-2.51,0-3.35-1.08-3.35-5.69V151.71c0-5.19,0-14.4,8-14.4,5.36,0,5.36,4.77,5.36,8.87v29.23h17.25V173h-1.85c-2.51,0-3.34-1.08-3.34-5.69V144c0-6.95-4-11.89-12.23-11.89-6.19,0-10.63,2.93-13.06,7L423.08,113H404.83v2.43h2.85c2.51,0,3.35,1.08,3.35,5.69Z"/><path class="cls-1" d="M544.36,175.41H561.6V173h-1.84c-2.51,0-3.35-1.08-3.35-5.69V151.71c0-5.19,0-14.4,8-14.4,5.36,0,5.36,4.77,5.36,8.87v29.23h17.25V173h-1.84c-2.52,0-3.35-1.08-3.35-5.69V144c0-6.95-4-11.89-12.22-11.89-6.2,0-10.23,2.68-13.57,7.45l-.17-6.11H539.38v2.43H541c2.51,0,3.35,1.08,3.35,5.69Z"/><path class="cls-1" d="M543.48,232.27l-3.27-8.39H527.78l-3,8.39h-4.39L532.7,200h2.78L548,232.27Zm-8.1-21.85a34,34,0,0,1-1.21-4h0a38.75,38.75,0,0,1-1.27,4l-3.56,9.76h9.46Z"/><path class="cls-1" d="M560.7,232.27H552V200.13h9.36c6,0,8.69,4.19,8.69,8a7.37,7.37,0,0,1-4.1,7v.1a7.16,7.16,0,0,1,6.1,7.41c0,4.59-2.83,9.66-11.32,9.66M556.31,204v10h3.9a5.08,5.08,0,0,0,5.27-5.12c0-3-1.76-4.83-5.51-4.83Zm4.83,13.8h-4.83v10.64h4.44c4.34,0,6.63-2.34,6.63-5.56,0-2.88-2.14-5.08-6.24-5.08"/><path class="cls-1" d="M599,229.44c-2,2.05-5.07,3.32-9.56,3.32-4.2,0-7.07-1.12-9-2.93-2.48-2.44-3.12-6.05-3.12-9.22V200.13h4.34v20.38a9.06,9.06,0,0,0,2.15,6.35,7.6,7.6,0,0,0,5.71,2.09c3,0,5-.78,6.24-2.09a8.66,8.66,0,0,0,1.9-6.05V200.13H602v21a11.71,11.71,0,0,1-3,8.34"/><path class="cls-1" d="M628.84,232.27h-7.9V200.13h7.9c12,0,17.61,6.73,17.61,15.75s-5.76,16.39-17.61,16.39m.34-28.29h-3.9v24.44h3.85c9.42,0,12.78-5.9,12.78-12.54s-4-11.9-12.73-11.9"/><polygon class="cls-1" points="673.13 232.27 673.13 217.88 656.2 217.88 656.2 232.27 651.86 232.27 651.86 200.13 656.2 200.13 656.2 214.03 673.13 214.03 673.13 200.13 677.47 200.13 677.47 232.27 673.13 232.27"/><path class="cls-1" d="M704.74,232.27l-3.27-8.39H689l-3,8.39h-4.39L694,200h2.78l12.53,32.24Zm-8.1-21.85a32.52,32.52,0,0,1-1.22-4h0a34.31,34.31,0,0,1-1.27,4l-3.56,9.76H700Z"/><path class="cls-1" d="M722,232.27h-8.74V200.13h9.37c6,0,8.68,4.19,8.68,8a7.37,7.37,0,0,1-4.1,7v.1a7.15,7.15,0,0,1,6.1,7.41c0,4.59-2.83,9.66-11.31,9.66M717.57,204v10h3.9a5.07,5.07,0,0,0,5.26-5.12c0-3-1.75-4.83-5.51-4.83Zm4.82,13.8h-4.82v10.64H722c4.34,0,6.64-2.34,6.64-5.56,0-2.88-2.15-5.08-6.25-5.08"/><rect class="cls-1" x="738.54" y="200.13" width="4.34" height="32.14"/><rect class="cls-2" x="-80.03" y="-202.18" width="1024" height="768"/><rect class="cls-2" x="-80.03" y="-202.18" width="1024" height="768"/></svg>